# xmcd
#
# Track frame offsets:
#	150
#	19672
#	37567
#	51306
#	68994
#	89216
#	105404
#	125501
#	143833
#	167332
#	184567
#	203476
#	226025
#	246358
#	260055
#	280586
#
# Disc length: 3946 seconds
#
# Revision: 4
# Processed by: cddbd v1.5.2PL0 Copyright (c) Steve Scherf et al.
# Submitted via: EasyCDDAExtractor 15.2.1.1
#
DISCID=d20f6810
DTITLE=Various Artist - Diva 6 Disc 2
DYEAR=2011
DGENRE=Pop
TTITLE0=林憶蓮 - 命運是否這樣
TTITLE1=葉蒨文 - 祝福
TTITLE2=葉蒨文 - Over the Rainbow
TTITLE3=陳慧嫻 - 人生何處不相逢
TTITLE4=陳慧嫻 - 秋色
TTITLE5=陳慧嫻 - 幾時再見 (Extended Version)
TTITLE6=陳慧嫻 - 燃點真愛
TTITLE7=林憶蓮,王傑 - 還有...
TTITLE8=林憶蓮 - 因你瘋了
TTITLE9=葉蒨文 - 流金歲月
TTITLE10=關淑怡 - 再會
TTITLE11=陳慧嫻 - 千千闋歌
TTITLE12=陳慧嫻 - 夜機
TTITLE13=陳慧嫻 - 冰點
TTITLE14=葉蒨文 - 只愛一次
TTITLE15=劉美君 - 你說是甜我說苦
EXTD=
EXTT0=
EXTT1=
EXTT2=
EXTT3=
EXTT4=
EXTT5=
EXTT6=
EXTT7=
EXTT8=
EXTT9=
EXTT10=
EXTT11=
EXTT12=
EXTT13=
EXTT14=
EXTT15=
PLAYORDER=
